<svg xmlns="http://www.w3.org/2000/svg" width="86.617" height="14.816" viewBox="0 0 86.617 14.816"><g fill="#FFF"><path d="M3.138 10.993c1.04 0 1.576-.562 1.576-1.603v-.754c-.18.164-.52.26-1.18.343-1 .12-1.588.34-1.588 1.1 0 .56.342.9 1.192.9m3.52-.74c0 .46.084.56.495.56h.054v1.26c-.178.08-.397.16-.808.16-.91 0-1.37-.28-1.53-.92-.47.56-1.29.97-2.47.97-1.44.01-2.4-.74-2.4-2.11C0 9.48.22 9 .61 8.65c.452-.38 1.11-.59 2.288-.71C4.16 7.81 4.71 7.7 4.71 7.07c0-.807-.59-.945-1.247-.945-.81 0-1.234.33-1.302 1.07H.22c.08-1.55 1.355-2.373 3.34-2.373 2.07 0 3.097.7 3.097 2.015v3.412zM8.99 5.02l1.49 4.836h.03l1.492-4.837h1.933l-2.398 7.08H9.372L6.947 5.02m10.083 5.973c1.042 0 1.576-.562 1.576-1.603v-.754c-.178.164-.52.26-1.178.343-1 .12-1.59.34-1.59 1.1 0 .56.343.9 1.193.9m3.53-.74c0 .46.08.56.5.56h.06v1.26c-.17.08-.39.16-.8.16-.9 0-1.37-.28-1.52-.92-.46.56-1.29.97-2.47.97-1.45 0-2.41-.76-2.41-2.13 0-.69.22-1.17.62-1.51.45-.39 1.11-.59 2.29-.71 1.26-.14 1.81-.25 1.81-.88 0-.81-.59-.95-1.24-.95-.81 0-1.23.33-1.3 1.07h-1.95c.08-1.55 1.36-2.37 3.34-2.37 2.07 0 3.1.7 3.1 2.01v3.41zm3.1 1.85h-1.95V5.02h1.95v7.083zm-.97-10.01c.61 0 1.1.49 1.1 1.09 0 .6-.49 1.09-1.09 1.09s-1.1-.49-1.1-1.09.5-1.09 1.1-1.09m1.81.23h1.95v9.78H24.5zm5.77 8.67c1.04 0 1.57-.56 1.57-1.6v-.76c-.18.16-.52.26-1.18.34-1 .12-1.59.34-1.59 1.1 0 .57.35.91 1.2.91m3.52-.74c0 .47.08.56.49.56h.06v1.27c-.174.08-.393.16-.804.16-.903 0-1.37-.28-1.52-.92-.465.56-1.29.97-2.47.97-1.45 0-2.41-.75-2.41-2.12 0-.69.22-1.17.62-1.51.45-.39 1.11-.59 2.29-.71 1.26-.14 1.81-.25 1.81-.88 0-.81-.59-.95-1.25-.95-.81 0-1.234.327-1.3 1.067h-1.95c.08-1.54 1.357-2.37 3.343-2.37 2.07 0 3.1.7 3.1 2.02v3.41zm4.77.58c1.1 0 1.66-1 1.66-2.26 0-1.26-.54-2.27-1.67-2.27-1.07 0-1.65.97-1.65 2.27s.59 2.26 1.66 2.26M36.98 2.3v3.56H37c.426-.645 1.235-1.056 2.235-1.056 1.425 0 2.932 1.15 2.932 3.727 0 2.48-1.41 3.74-2.946 3.74-1.14 0-1.93-.38-2.31-1.09h-.02v.9h-1.85V2.32h1.95zm5.93 0h1.95v9.78H42.9zm7.77 5.48c-.19-1.07-.66-1.51-1.56-1.51-.943 0-1.52.574-1.6 1.506h3.16zm1.96.876c0 .11-.01.353-.01.353H47.5c.055 1.22.616 1.79 1.727 1.79.74 0 1.397-.426 1.548-.92h1.716c-.52 1.6-1.61 2.38-3.31 2.38-2.24 0-3.61-1.55-3.61-3.73 0-2.14 1.48-3.74 3.62-3.74 2.24 0 3.45 1.754 3.45 3.85m6.62 2.32c1.04 0 1.58-.566 1.58-1.607v-.75c-.18.16-.52.26-1.18.34-1 .12-1.59.34-1.59 1.11 0 .56.34.9 1.19.9m3.52-.74c0 .46.09.56.5.56h.056v1.26c-.18.08-.4.16-.81.16-.904 0-1.37-.27-1.52-.92-.47.565-1.29.976-2.47.976-1.45 0-2.41-.758-2.41-2.128 0-.686.22-1.164.618-1.507.45-.386 1.11-.59 2.29-.71 1.26-.137 1.81-.248 1.81-.877 0-.81-.59-.948-1.242-.948-.81 0-1.23.33-1.3 1.07h-1.95c.08-1.55 1.356-2.37 3.34-2.37 2.07 0 3.1.7 3.1 2.012v3.41zm3.57-7.36V5h1.427v1.3h-1.43v3.51c0 .65.164.82.82.82.22 0 .437-.01.6-.06v1.52c-.326.056-.764.07-1.15.07-1.49 0-2.22-.452-2.22-1.713V6.32H63.2V5.018h1.18V2.894h1.947zm12.89-.43c-2.73 0-4.94 2.21-4.94 4.94 0 2.73 2.21 4.94 4.94 4.94s4.947-2.21 4.947-4.94c0-2.73-2.21-4.94-4.94-4.94m7.41 4.94c0 4.097-3.32 7.41-7.41 7.41s-7.41-3.313-7.41-7.41C71.8 3.313 75.12 0 79.21 0c4.094 0 7.41 3.316 7.41 7.408"/><path d="M79.208 4.87c-1.402 0-2.54 1.136-2.54 2.538 0 1.403 1.138 2.54 2.54 2.54 1.403 0 2.54-1.137 2.54-2.54 0-1.402-1.137-2.54-2.54-2.54"/></g></svg>